<?xml version="1.0" encoding="UTF-8"?>
<svg width="700pt" height="700pt" version="1.1" viewBox="0 0 700 700" xmlns="http://www.w3.org/2000/svg" xmlns:xlink="http://www.w3.org/1999/xlink">
 <defs>
  <symbol id="t" overflow="visible">
   <path d="m3.6562-0.21875c-0.1875 0.09375-0.38672 0.16797-0.59375 0.21875-0.19922 0.050781-0.40625 0.078125-0.625 0.078125-0.66797 0-1.1992-0.17969-1.5938-0.54688-0.38672-0.375-0.57812-0.87891-0.57812-1.5156 0-0.64453 0.19141-1.1484 0.57812-1.5156 0.39453-0.375 0.92578-0.5625 1.5938-0.5625 0.21875 0 0.42578 0.027344 0.625 0.078125 0.20703 0.054687 0.40625 0.125 0.59375 0.21875v0.82812c-0.1875-0.125-0.375-0.21875-0.5625-0.28125-0.17969-0.0625-0.37109-0.09375-0.57812-0.09375-0.36719 0-0.65625 0.12109-0.875 0.35938-0.21094 0.23047-0.3125 0.55469-0.3125 0.96875 0 0.40625 0.10156 0.73047 0.3125 0.96875 0.21875 0.23047 0.50781 0.34375 0.875 0.34375 0.20703 0 0.39844-0.023437 0.57812-0.078125 0.1875-0.0625 0.375-0.16016 0.5625-0.29688z"/>
  </symbol>
  <symbol id="c" overflow="visible">
   <path d="m2.6875-2.1719c-0.085938-0.039063-0.16797-0.070313-0.25-0.09375-0.085938-0.019531-0.16797-0.03125-0.25-0.03125-0.25 0-0.44531 0.085937-0.57812 0.25-0.125 0.15625-0.1875 0.38281-0.1875 0.67188v1.375h-0.96875v-2.9844h0.96875v0.48438c0.11328-0.19531 0.25-0.33594 0.40625-0.42188 0.16406-0.09375 0.35938-0.14062 0.57812-0.14062h0.10938c0.039063 0 0.09375 0.007812 0.15625 0.015625z"/>
  </symbol>
  <symbol id="b" overflow="visible">
   <path d="m3.4375-1.5v0.26562h-2.2344c0.03125 0.23047 0.11328 0.40234 0.25 0.51562 0.13281 0.10547 0.32812 0.15625 0.57812 0.15625 0.20703 0 0.41406-0.023438 0.625-0.078125 0.20703-0.0625 0.42188-0.15625 0.64062-0.28125v0.73438c-0.21875 0.09375-0.44531 0.16406-0.67188 0.20312-0.23047 0.039062-0.45312 0.0625-0.67188 0.0625-0.54297 0-0.96484-0.13281-1.2656-0.40625-0.30469-0.28125-0.45312-0.67188-0.45312-1.1719 0-0.47656 0.14453-0.85938 0.4375-1.1406 0.30078-0.28125 0.70703-0.42188 1.2188-0.42188 0.46875 0 0.84375 0.14062 1.125 0.42188s0.42188 0.66406 0.42188 1.1406zm-0.96875-0.32812c0-0.17578-0.058594-0.31641-0.17188-0.42188-0.10547-0.11328-0.24219-0.17188-0.40625-0.17188-0.1875 0-0.33984 0.054687-0.45312 0.15625-0.11719 0.10547-0.1875 0.25-0.21875 0.4375z"/>
  </symbol>
  <symbol id="d" overflow="visible">
   <path d="m1.7969-1.3438c-0.19922 0-0.35156 0.039062-0.45312 0.10938-0.09375 0.0625-0.14062 0.16406-0.14062 0.29688 0 0.11719 0.035156 0.21094 0.10938 0.28125 0.082031 0.0625 0.19531 0.09375 0.34375 0.09375 0.17578 0 0.32812-0.0625 0.45312-0.1875s0.1875-0.28516 0.1875-0.48438v-0.10938zm1.4688-0.35938v1.7031h-0.96875v-0.4375c-0.125 0.17969-0.27344 0.30859-0.4375 0.39062-0.15625 0.082031-0.35156 0.125-0.57812 0.125-0.3125 0-0.57031-0.085938-0.76562-0.26562-0.1875-0.1875-0.28125-0.42188-0.28125-0.70312 0-0.35156 0.11719-0.61328 0.35938-0.78125 0.23828-0.16406 0.61719-0.25 1.1406-0.25h0.5625v-0.0625c0-0.15625-0.0625-0.26562-0.1875-0.32812-0.11719-0.070312-0.29688-0.10938-0.54688-0.10938-0.21094 0-0.40234 0.023437-0.57812 0.0625-0.17969 0.042969-0.33984 0.10156-0.48438 0.17188v-0.71875c0.19531-0.050781 0.39844-0.085938 0.60938-0.10938 0.20703-0.03125 0.41406-0.046875 0.625-0.046875 0.53906 0 0.92969 0.10938 1.1719 0.32812 0.23828 0.21094 0.35938 0.55469 0.35938 1.0312z"/>
  </symbol>
  <symbol id="a" overflow="visible">
   <path d="m1.5-3.8438v0.85938h0.98438v0.67188h-0.98438v1.2812c0 0.13672 0.023438 0.23047 0.078125 0.28125 0.0625 0.042969 0.17578 0.0625 0.34375 0.0625h0.48438v0.6875h-0.8125c-0.38672 0-0.65625-0.078125-0.8125-0.23438s-0.23438-0.42188-0.23438-0.79688v-1.2812h-0.46875v-0.67188h0.46875v-0.85938z"/>
  </symbol>
  <symbol id="i" overflow="visible">
   <path d="m2.5-2.5469v-1.6094h0.95312v4.1562h-0.95312v-0.4375c-0.13672 0.17969-0.28125 0.30859-0.4375 0.39062-0.15625 0.082031-0.33984 0.125-0.54688 0.125-0.375 0-0.68359-0.14453-0.92188-0.4375-0.23047-0.28906-0.34375-0.67188-0.34375-1.1406 0-0.45703 0.11328-0.83203 0.34375-1.125 0.23828-0.28906 0.54688-0.4375 0.92188-0.4375 0.19531 0 0.375 0.042969 0.53125 0.125 0.16406 0.085938 0.31641 0.21484 0.45312 0.39062zm-0.64062 1.9375c0.20703 0 0.36328-0.070313 0.46875-0.21875 0.11328-0.15625 0.17188-0.37891 0.17188-0.67188 0-0.28125-0.058594-0.49219-0.17188-0.64062-0.10547-0.15625-0.26172-0.23438-0.46875-0.23438-0.19922 0-0.35547 0.078125-0.46875 0.23438-0.10547 0.14844-0.15625 0.35938-0.15625 0.64062 0 0.29297 0.050781 0.51562 0.15625 0.67188 0.11328 0.14844 0.26953 0.21875 0.46875 0.21875z"/>
  </symbol>
  <symbol id="h" overflow="visible">
   <path d="m2.0469-0.60938c0.20703 0 0.36328-0.070313 0.46875-0.21875 0.11328-0.15625 0.17188-0.37891 0.17188-0.67188 0-0.28125-0.058594-0.49219-0.17188-0.64062-0.10547-0.15625-0.26172-0.23438-0.46875-0.23438-0.19922 0-0.35547 0.078125-0.46875 0.23438-0.10547 0.14844-0.15625 0.35938-0.15625 0.64062 0 0.29297 0.050781 0.51562 0.15625 0.67188 0.11328 0.14844 0.26953 0.21875 0.46875 0.21875zm-0.625-1.9375c0.125-0.17578 0.26562-0.30469 0.42188-0.39062 0.16406-0.082031 0.35156-0.125 0.5625-0.125 0.36328 0 0.66406 0.14844 0.90625 0.4375 0.23828 0.29297 0.35938 0.66797 0.35938 1.125 0 0.46875-0.12109 0.85156-0.35938 1.1406-0.24219 0.29297-0.54297 0.4375-0.90625 0.4375-0.21094 0-0.39844-0.042969-0.5625-0.125-0.15625-0.082031-0.29688-0.21094-0.42188-0.39062v0.4375h-0.96875v-4.1562h0.96875z"/>
  </symbol>
  <symbol id="g" overflow="visible">
   <path d="m0.0625-2.9844h0.95312l0.8125 2.0156 0.6875-2.0156h0.95312l-1.2656 3.2656c-0.125 0.33203-0.27344 0.56641-0.4375 0.70312-0.16797 0.13281-0.39062 0.20312-0.67188 0.20312h-0.54688v-0.64062h0.29688c0.16406 0 0.28516-0.027344 0.35938-0.078125 0.070313-0.054688 0.12891-0.14062 0.17188-0.26562l0.03125-0.09375z"/>
  </symbol>
  <symbol id="f" overflow="visible">
   <path d="m0.5-3.9844h2.7812v0.78125h-1.75v0.73438h1.6406v0.78125h-1.6406v1.6875h-1.0312z"/>
  </symbol>
  <symbol id="s" overflow="visible">
   <path d="m0.45312-4.1562h0.96875v4.1562h-0.96875z"/>
  </symbol>
  <symbol id="r" overflow="visible">
   <path d="m2.4219-4.1562v0.625h-0.51562c-0.13672 0-0.23438 0.027344-0.29688 0.078125-0.054687 0.054687-0.078125 0.13672-0.078125 0.25v0.21875h0.82812v0.67188h-0.82812v2.3125h-0.95312v-2.3125h-0.46875v-0.67188h0.46875v-0.21875c0-0.32031 0.085937-0.5625 0.26562-0.71875 0.1875-0.15625 0.47266-0.23438 0.85938-0.23438z"/>
  </symbol>
  <symbol id="e" overflow="visible">
   <path d="m1.875-2.375c-0.21094 0-0.37109 0.078125-0.48438 0.23438-0.10547 0.14844-0.15625 0.35938-0.15625 0.64062 0 0.29297 0.050781 0.51562 0.15625 0.67188 0.11328 0.14844 0.27344 0.21875 0.48438 0.21875 0.20703 0 0.36719-0.070313 0.48438-0.21875 0.11328-0.15625 0.17188-0.37891 0.17188-0.67188 0-0.28125-0.058594-0.49219-0.17188-0.64062-0.11719-0.15625-0.27734-0.23438-0.48438-0.23438zm0-0.6875c0.51953 0 0.92188 0.14062 1.2031 0.42188 0.28906 0.27344 0.4375 0.65234 0.4375 1.1406 0 0.5-0.14844 0.89062-0.4375 1.1719-0.28125 0.27344-0.68359 0.40625-1.2031 0.40625-0.51172 0-0.91406-0.13281-1.2031-0.40625-0.29297-0.28125-0.4375-0.67188-0.4375-1.1719 0-0.48828 0.14453-0.86719 0.4375-1.1406 0.28906-0.28125 0.69141-0.42188 1.2031-0.42188z"/>
  </symbol>
  <symbol id="q" overflow="visible">
   <path d="m3.2344-2.5c0.11328-0.17578 0.25391-0.3125 0.42188-0.40625 0.16406-0.10156 0.35156-0.15625 0.5625-0.15625 0.33203 0 0.58594 0.10938 0.76562 0.32812 0.1875 0.21094 0.28125 0.51172 0.28125 0.90625v1.8281h-0.96875v-1.5625c0.007813-0.019531 0.015625-0.039062 0.015625-0.0625v-0.10938c0-0.21875-0.03125-0.375-0.09375-0.46875s-0.16406-0.14062-0.29688-0.14062c-0.1875 0-0.33594 0.078125-0.4375 0.23438-0.09375 0.14844-0.14062 0.35938-0.14062 0.64062v1.4688h-0.96875v-1.5625c0-0.33203-0.03125-0.54688-0.09375-0.64062-0.054688-0.09375-0.15234-0.14062-0.29688-0.14062-0.17969 0-0.32031 0.078125-0.42188 0.23438-0.09375 0.14844-0.14062 0.35938-0.14062 0.64062v1.4688h-0.96875v-2.9844h0.96875v0.4375c0.11328-0.17578 0.24219-0.30469 0.39062-0.39062 0.15625-0.082031 0.32812-0.125 0.51562-0.125 0.20703 0 0.39062 0.054688 0.54688 0.15625 0.15625 0.09375 0.27344 0.23047 0.35938 0.40625z"/>
  </symbol>
  <symbol id="p" overflow="visible">
   <path d="m3.4688-1.8281v1.8281h-0.96875v-1.3906c0-0.25781-0.007812-0.4375-0.015625-0.53125-0.011719-0.10156-0.03125-0.17578-0.0625-0.21875-0.03125-0.0625-0.085937-0.10938-0.15625-0.14062-0.0625-0.039062-0.13281-0.0625-0.20312-0.0625-0.21094 0-0.37109 0.078125-0.48438 0.23438-0.10547 0.15625-0.15625 0.37109-0.15625 0.64062v1.4688h-0.96875v-4.1562h0.96875v1.6094c0.13281-0.17578 0.28516-0.30469 0.45312-0.39062 0.16406-0.082031 0.34375-0.125 0.53125-0.125 0.34375 0 0.60156 0.10938 0.78125 0.32812 0.1875 0.21094 0.28125 0.51172 0.28125 0.90625z"/>
  </symbol>
  <symbol id="o" overflow="visible">
   <path d="m0.5-3.9844h1.1562l1.4375 2.7344v-2.7344h0.98438v3.9844h-1.1562l-1.4375-2.7344v2.7344h-0.98438z"/>
  </symbol>
  <symbol id="n" overflow="visible">
   <path d="m0.42188-1.1719v-1.8125h0.96875v0.29688 0.60938 0.48438c0 0.24219 0.003906 0.41797 0.015625 0.53125 0.007812 0.10547 0.03125 0.17969 0.0625 0.21875 0.039062 0.0625 0.09375 0.11719 0.15625 0.15625 0.0625 0.03125 0.13281 0.046875 0.21875 0.046875 0.19531 0 0.35156-0.078125 0.46875-0.23438 0.11328-0.15625 0.17188-0.36719 0.17188-0.64062v-1.4688h0.95312v2.9844h-0.95312v-0.4375c-0.14844 0.17969-0.30469 0.30859-0.46875 0.39062-0.15625 0.082031-0.33594 0.125-0.53125 0.125-0.34375 0-0.60938-0.10156-0.79688-0.3125-0.17969-0.21875-0.26562-0.53125-0.26562-0.9375z"/>
  </symbol>
  <symbol id="m" overflow="visible">
   <path d="m3.4688-1.8281v1.8281h-0.96875v-1.3906c0-0.25781-0.007812-0.4375-0.015625-0.53125-0.011719-0.10156-0.03125-0.17578-0.0625-0.21875-0.03125-0.0625-0.085937-0.10938-0.15625-0.14062-0.0625-0.039062-0.13281-0.0625-0.20312-0.0625-0.21094 0-0.37109 0.078125-0.48438 0.23438-0.10547 0.15625-0.15625 0.37109-0.15625 0.64062v1.4688h-0.96875v-2.9844h0.96875v0.4375c0.13281-0.17578 0.28516-0.30469 0.45312-0.39062 0.16406-0.082031 0.34375-0.125 0.53125-0.125 0.34375 0 0.60156 0.10938 0.78125 0.32812 0.1875 0.21094 0.28125 0.51172 0.28125 0.90625z"/>
  </symbol>
  <symbol id="l" overflow="visible">
   <path d="m0.5-3.9844h1.7031c0.50781 0 0.89844 0.11719 1.1719 0.34375 0.26953 0.21875 0.40625 0.53906 0.40625 0.95312 0 0.41797-0.13672 0.74219-0.40625 0.96875-0.27344 0.21875-0.66406 0.32812-1.1719 0.32812h-0.67188v1.3906h-1.0312zm1.0312 0.75v1.1094h0.5625c0.19531 0 0.34766-0.046875 0.45312-0.14062 0.11328-0.10156 0.17188-0.24219 0.17188-0.42188 0-0.17578-0.058594-0.3125-0.17188-0.40625-0.10547-0.09375-0.25781-0.14062-0.45312-0.14062z"/>
  </symbol>
  <symbol id="k" overflow="visible">
   <path d="m0.45312-2.9844h0.96875v2.9375c0 0.39453-0.10156 0.69531-0.29688 0.90625-0.1875 0.21875-0.46484 0.32812-0.82812 0.32812h-0.48438v-0.64062h0.17188c0.17578 0 0.29688-0.042969 0.35938-0.125 0.070312-0.074219 0.10938-0.23047 0.10938-0.46875zm0-1.1719h0.96875v0.78125h-0.96875z"/>
  </symbol>
  <symbol id="j" overflow="visible">
   <path d="m2.875-2.8906v0.76562c-0.125-0.082031-0.25781-0.14453-0.39062-0.1875-0.13672-0.039062-0.27344-0.0625-0.40625-0.0625-0.27344 0-0.48047 0.078125-0.625 0.23438-0.14844 0.15625-0.21875 0.37109-0.21875 0.64062 0 0.28125 0.070313 0.5 0.21875 0.65625 0.14453 0.15625 0.35156 0.23438 0.625 0.23438 0.14453 0 0.28516-0.019531 0.42188-0.0625 0.13281-0.039063 0.25781-0.10938 0.375-0.20312v0.78125c-0.14844 0.0625-0.29688 0.10156-0.45312 0.125-0.15625 0.03125-0.3125 0.046875-0.46875 0.046875-0.54297 0-0.96484-0.13281-1.2656-0.40625-0.30469-0.28125-0.45312-0.67188-0.45312-1.1719 0-0.48828 0.14844-0.86719 0.45312-1.1406 0.30078-0.28125 0.72266-0.42188 1.2656-0.42188 0.15625 0 0.3125 0.015625 0.46875 0.046875 0.15625 0.023437 0.30469 0.0625 0.45312 0.125z"/>
  </symbol>
 </defs>
 <g>
  <path d="m481.25 529.22h-0.003906-0.51563c-51.133-0.25-94.184-37.527-102.09-87.5h-57.273c-7.9336 50.219-51.211 87.5-102.61 87.5-27.898 0-54.09-10.906-73.746-30.707s-30.363-46.074-30.156-73.984c0.42188-56.859 47.586-103.12 105.14-103.12h260.37c40.125 0 77.148 22.863 94.324 58.254 7.4219 15.285 11.023 32.391 10.414 49.469-0.96484 26.891-12.266 52.074-31.824 70.91-19.551 18.812-45.133 29.176-72.031 29.176zm-164.67-98.438h66.84c2.7891 0 5.1289 2.0977 5.4375 4.8672 5.1836 46.875 44.703 82.398 91.922 82.633h0.46094c49.461 0.003906 91.145-40.168 92.918-89.547 0.55078-15.293-2.6758-30.613-9.3203-44.297-15.355-31.645-48.52-52.094-84.484-52.094h-260.37c-51.566 0-93.824 41.387-94.203 92.262-0.18359 24.973 9.3984 48.484 26.98 66.199 17.586 17.719 41.02 27.477 65.984 27.477 47.465 0 87.188-35.523 92.395-82.633 0.30859-2.7695 2.6523-4.8672 5.4375-4.8672z"/>
  <path d="m218.75 480c-12.062 0-21.875-9.8125-21.875-21.875v-5.4688h-5.4688c-12.062 0-21.875-9.8125-21.875-21.875s9.8125-21.875 21.875-21.875h5.4688v-5.4688c0-12.062 9.8125-21.875 21.875-21.875s21.875 9.8125 21.875 21.875v5.4688h5.4688c12.062 0 21.875 9.8125 21.875 21.875s-9.8125 21.875-21.875 21.875h-5.4688v5.4688c0 12.062-9.8125 21.875-21.875 21.875zm-27.344-60.156c-6.0312 0-10.938 4.9062-10.938 10.938s4.9062 10.938 10.938 10.938h10.938c3.0195 0 5.4688 2.4492 5.4688 5.4688v10.938c0 6.0312 4.9062 10.938 10.938 10.938s10.938-4.9062 10.938-10.938v-10.938c0-3.0195 2.4492-5.4688 5.4688-5.4688h10.938c6.0312 0 10.938-4.9062 10.938-10.938s-4.9062-10.938-10.938-10.938h-10.938c-3.0195 0-5.4688-2.4492-5.4688-5.4688v-10.938c0-6.0312-4.9062-10.938-10.938-10.938s-10.938 4.9062-10.938 10.938v10.938c0 3.0195-2.4492 5.4688-5.4688 5.4688z"/>
  <path d="m442.97 452.66c-12.062 0-21.875-9.8125-21.875-21.875s9.8125-21.875 21.875-21.875 21.875 9.8125 21.875 21.875-9.8125 21.875-21.875 21.875zm0-32.812c-6.0312 0-10.938 4.9062-10.938 10.938s4.9062 10.938 10.938 10.938 10.938-4.9062 10.938-10.938-4.9062-10.938-10.938-10.938z"/>
  <path d="m519.53 452.66c-12.062 0-21.875-9.8125-21.875-21.875s9.8125-21.875 21.875-21.875 21.875 9.8125 21.875 21.875-9.8125 21.875-21.875 21.875zm0-32.812c-6.0312 0-10.938 4.9062-10.938 10.938s4.9062 10.938 10.938 10.938 10.938-4.9062 10.938-10.938-4.9062-10.938-10.938-10.938z"/>
  <path d="m481.25 408.91c-12.062 0-21.875-9.8125-21.875-21.875s9.8125-21.875 21.875-21.875 21.875 9.8125 21.875 21.875-9.8125 21.875-21.875 21.875zm0-32.812c-6.0312 0-10.938 4.9062-10.938 10.938s4.9062 10.938 10.938 10.938 10.938-4.9062 10.938-10.938-4.9062-10.938-10.938-10.938z"/>
  <path d="m481.25 496.41c-12.062 0-21.875-9.8125-21.875-21.875s9.8125-21.875 21.875-21.875 21.875 9.8125 21.875 21.875-9.8125 21.875-21.875 21.875zm0-32.812c-6.0312 0-10.938 4.9062-10.938 10.938s4.9062 10.938 10.938 10.938 10.938-4.9062 10.938-10.938-4.9062-10.938-10.938-10.938z"/>
  <path d="m393.75 408.91h-87.5c-3.0195 0-5.4688-2.4492-5.4688-5.4688s2.4492-5.4688 5.4688-5.4688h87.5c3.0195 0 5.4688 2.4492 5.4688 5.4688s-2.4492 5.4688-5.4688 5.4688z"/>
  <path d="m360.94 376.09h-21.875c-3.0195 0-5.4688-2.4492-5.4688-5.4688s2.4492-5.4688 5.4688-5.4688h21.875c3.0195 0 5.4688 2.4492 5.4688 5.4688s-2.4492 5.4688-5.4688 5.4688z"/>
  <path d="m404.69 370.62c0 6.0391-4.8984 10.938-10.938 10.938s-10.938-4.8984-10.938-10.938 4.8984-10.938 10.938-10.938 10.938 4.8984 10.938 10.938"/>
  <path d="m557.81 97.188c0 6.0391-4.8984 10.938-10.938 10.938s-10.938-4.8984-10.938-10.938 4.8984-10.938 10.938-10.938 10.938 4.8984 10.938 10.938"/>
  <path d="m590.62 315.94c0 6.0391-4.8984 10.938-10.938 10.938s-10.938-4.8984-10.938-10.938 4.8984-10.938 10.938-10.938 10.938 4.8984 10.938 10.938"/>
  <path d="m437.5 272.19c0 6.0391-4.8984 10.938-10.938 10.938s-10.938-4.8984-10.938-10.938 4.8984-10.938 10.938-10.938 10.938 4.8984 10.938 10.938"/>
  <path d="m262.5 272.19c0 6.0391-4.8984 10.938-10.938 10.938s-10.938-4.8984-10.938-10.938 4.8984-10.938 10.938-10.938 10.938 4.8984 10.938 10.938"/>
  <path d="m175 108.12c0 6.0391-4.8984 10.938-10.938 10.938s-10.938-4.8984-10.938-10.938 4.8984-10.938 10.938-10.938 10.938 4.8984 10.938 10.938"/>
  <path d="m131.25 305c0 6.0391-4.8984 10.938-10.938 10.938s-10.938-4.8984-10.938-10.938 4.8984-10.938 10.938-10.938 10.938 4.8984 10.938 10.938"/>
  <path d="m317.19 370.62c0 6.0391-4.8984 10.938-10.938 10.938s-10.938-4.8984-10.938-10.938 4.8984-10.938 10.938-10.938 10.938 4.8984 10.938 10.938"/>
  <path d="m350 233.91c-3.0195 0-5.4688-2.4492-5.4688-5.4688v-13.727c0-3.0195 2.4492-5.4688 5.4688-5.4688s5.4688 2.4492 5.4688 5.4688v13.727c0 3.0195-2.4492 5.4688-5.4688 5.4688z"/>
  <path d="m350 55.445c-3.0195 0-5.4688-2.4492-5.4688-5.4688v-13.727c0-3.0195 2.4492-5.4688 5.4688-5.4688s5.4688 2.4492 5.4688 5.4688v13.727c0 3.0195-2.4492 5.4688-5.4688 5.4688z"/>
  <path d="m267.63 137.81h-13.727c-3.0195 0-5.4688-2.4492-5.4688-5.4688s2.4492-5.4688 5.4688-5.4688h13.727c3.0195 0 5.4688 2.4492 5.4688 5.4688s-2.4492 5.4688-5.4688 5.4688z"/>
  <path d="m446.09 137.81h-13.73c-3.0195 0-5.4688-2.4492-5.4688-5.4688s2.4492-5.4688 5.4688-5.4688h13.73c3.0195 0 5.4688 2.4492 5.4688 5.4688s-2.4492 5.4688-5.4688 5.4688z"/>
  <path d="m282.05 205.76c-1.3984 0-2.8008-0.53516-3.8672-1.6016-2.1367-2.1367-2.1367-5.5977 0-7.7344l9.707-9.707c2.1367-2.1367 5.5977-2.1367 7.7344 0s2.1367 5.5977 0 7.7344l-9.707 9.707c-1.0664 1.0664-2.4688 1.6016-3.8672 1.6016z"/>
  <path d="m408.24 79.57c-1.3984 0-2.8008-0.53516-3.8672-1.6016-2.1367-2.1367-2.1367-5.5977 0-7.7344l9.707-9.707c2.1328-2.1367 5.5977-2.1367 7.7344 0 2.1367 2.1367 2.1367 5.5977 0 7.7344l-9.707 9.707c-1.0664 1.0664-2.4688 1.6016-3.8672 1.6016z"/>
  <path d="m291.76 79.57c-1.3984 0-2.8008-0.53516-3.8672-1.6016l-9.707-9.707c-2.1367-2.1367-2.1367-5.5977 0-7.7344 2.1367-2.1367 5.5977-2.1367 7.7344 0l9.707 9.707c2.1367 2.1367 2.1367 5.5977 0 7.7344-1.0664 1.0664-2.4688 1.6016-3.8672 1.6016z"/>
  <path d="m417.95 205.76c-1.3984 0-2.8008-0.53516-3.8672-1.6016l-9.707-9.707c-2.1367-2.1367-2.1367-5.5977 0-7.7344 2.1328-2.1367 5.5977-2.1367 7.7344 0l9.707 9.707c2.1367 2.1367 2.1367 5.5977 0 7.7344-1.0664 1.0664-2.4688 1.6016-3.8672 1.6016z"/>
  <path d="m350 151.54c-1.418 0-2.8203-0.55078-3.8672-1.6016l-27.457-27.457c-2.1367-2.1367-2.1367-5.5977 0-7.7344 2.1367-2.1367 5.5977-2.1367 7.7344 0l24.668 24.668 23.93-11.965c2.7031-1.3516 5.9883-0.25391 7.3359 2.4453 1.3516 2.7031 0.25781 5.9844-2.4453 7.3359l-27.457 13.727c-0.77344 0.39453-1.6094 0.58203-2.4414 0.58203z"/>
  <path d="m350 233.91c-56.004 0-101.56-45.559-101.56-101.56s45.559-101.56 101.56-101.56 101.56 45.562 101.56 101.56-45.559 101.56-101.56 101.56zm0-192.19c-49.973 0-90.625 40.656-90.625 90.625s40.652 90.625 90.625 90.625 90.625-40.652 90.625-90.625-40.652-90.625-90.625-90.625z"/>
  <path d="m382.81 332.34h-65.625c-3.0195 0-5.4688-2.4492-5.4688-5.4688 0-21.109 17.172-38.281 38.281-38.281s38.281 17.172 38.281 38.281c0 3.0195-2.4492 5.4688-5.4688 5.4688zm-59.605-10.938h53.59c-2.5391-12.465-13.59-21.875-26.793-21.875-13.207 0-24.258 9.4102-26.797 21.875z"/>
  <path d="m350 299.53c-3.0195 0-5.4688-2.4492-5.4688-5.4688v-65.625c0-3.0195 2.4492-5.4688 5.4688-5.4688s5.4688 2.4492 5.4688 5.4688v65.625c0 3.0195-2.4492 5.4688-5.4688 5.4688z"/>
  <path d="m164.06 266.72c-15.078 0-27.344-12.266-27.344-27.344s12.266-27.344 27.344-27.344 27.344 12.266 27.344 27.344-12.266 27.344-27.344 27.344zm0-43.75c-9.0469 0-16.406 7.3594-16.406 16.406s7.3594 16.406 16.406 16.406 16.406-7.3594 16.406-16.406-7.3594-16.406-16.406-16.406z"/>
  <path d="m514.06 266.72c-21.109 0-38.281-17.172-38.281-38.281s17.172-38.281 38.281-38.281 38.281 17.172 38.281 38.281-17.172 38.281-38.281 38.281zm0-65.625c-15.078 0-27.344 12.266-27.344 27.344s12.266 27.344 27.344 27.344 27.344-12.266 27.344-27.344-12.266-27.344-27.344-27.344z"/>
  <use x="70" y="576.40625" xlink:href="#t"/>
  <use x="74.011719" y="576.40625" xlink:href="#c"/>
  <use x="76.710938" y="576.40625" xlink:href="#b"/>
  <use x="80.417969" y="576.40625" xlink:href="#d"/>
  <use x="84.109375" y="576.40625" xlink:href="#a"/>
  <use x="86.722656" y="576.40625" xlink:href="#b"/>
  <use x="90.433594" y="576.40625" xlink:href="#i"/>
  <use x="96.25" y="576.40625" xlink:href="#h"/>
  <use x="100.167969" y="576.40625" xlink:href="#g"/>
  <use x="105.636719" y="576.40625" xlink:href="#f"/>
  <use x="109.371094" y="576.40625" xlink:href="#s"/>
  <use x="111.246094" y="576.40625" xlink:href="#d"/>
  <use x="114.9375" y="576.40625" xlink:href="#a"/>
  <use x="117.550781" y="576.40625" xlink:href="#d"/>
  <use x="121.238281" y="576.40625" xlink:href="#c"/>
  <use x="123.9375" y="576.40625" xlink:href="#a"/>
  <use x="70" y="581.875" xlink:href="#r"/>
  <use x="72.378906" y="581.875" xlink:href="#c"/>
  <use x="75.078125" y="581.875" xlink:href="#e"/>
  <use x="78.832031" y="581.875" xlink:href="#q"/>
  <use x="86.4375" y="581.875" xlink:href="#a"/>
  <use x="89.050781" y="581.875" xlink:href="#p"/>
  <use x="92.941406" y="581.875" xlink:href="#b"/>
  <use x="98.554688" y="581.875" xlink:href="#o"/>
  <use x="103.132812" y="581.875" xlink:href="#e"/>
  <use x="106.890625" y="581.875" xlink:href="#n"/>
  <use x="110.785156" y="581.875" xlink:href="#m"/>
  <use x="116.582031" y="581.875" xlink:href="#l"/>
  <use x="120.589844" y="581.875" xlink:href="#c"/>
  <use x="123.285156" y="581.875" xlink:href="#e"/>
  <use x="127.042969" y="581.875" xlink:href="#k"/>
  <use x="128.917969" y="581.875" xlink:href="#b"/>
  <use x="132.625" y="581.875" xlink:href="#j"/>
  <use x="135.867188" y="581.875" xlink:href="#a"/>
 </g>
</svg>
